# xmcd
#
# Track frame offsets:
# 150
# 11678
# 29205
# 44669
# 54324
# 74955
# 95580
# 111440
# 124757
# 138115
# 154964
# 165928
# 179527
# 198933
# 222232
#
# Disc length: 3138 seconds
#
#
# Revision: 0
# Processed by: cddbd v1.5.1PL0 Copyright (c) Steve Scherf et al.
# Submitted via: FreeRIP 2.60 
#
DISCID=e30c400f
DTITLE=Erny Bertollozzi - Um Tenor da C.C.B
DYEAR=1900
DGENRE=Gospel
TTITLE0=Se muitos soubessem... (180)
TTITLE1=Eu sou a porta que ao céu conduz (207)
TTITLE2=Estou à porta, ó pecador (197)
TTITLE3=Sinto bater, oh! Quem pode ser (046)
TTITLE4=Da Igreja firme fundamento (282)
TTITLE5=Cristo, luz do mundo (064)
TTITLE6=Cristo entrou nos céus primeiro (173)
TTITLE7=Senhor Tu és a minha porções (358)
TTITLE8=Por ti vivo ó Deus potente (220)
TTITLE9=Oh! que fundamento (288)
TTITLE10=Oh! Marchal, soldados (126)
TTITLE11=Sei que ao findar... (048)
TTITLE12=O teu coração vem a Deus entregar (322)
TTITLE13=Sou criança, Senhor (444)
TTITLE14=O meu vero amigo é Jesus (190)
EXTD=
EXTT0=
EXTT1=
EXTT2=
EXTT3=
EXTT4=
EXTT5=
EXTT6=
EXTT7=
EXTT8=
EXTT9=
EXTT10=
EXTT11=
EXTT12=
EXTT13=
EXTT14=
PLAYORDER=
